<?xml version="1.0" standalone="no"?>
<!DOCTYPE svg PUBLIC "-//W3C//DTD SVG 20010904//EN"
 "http://www.w3.org/TR/2001/REC-SVG-20010904/DTD/svg10.dtd">
<svg version="1.0" xmlns="http://www.w3.org/2000/svg"
 width="600.000000pt" height="600.000000pt" viewBox="0 0 600.000000 600.000000"
 preserveAspectRatio="xMidYMid meet">

<g transform="translate(0.000000,600.000000) scale(0.100000,-0.100000)"
fill="#000000" stroke="none">
<path d="M1929 5361 c-192 -64 -398 -224 -549 -426 -67 -90 -153 -268 -180
-370 -28 -111 -43 -255 -35 -350 8 -105 49 -265 85 -339 29 -58 30 -60 16
-115 -8 -31 -17 -73 -21 -94 -6 -37 -8 -39 -38 -33 -258 45 -294 -6 -177 -249
53 -109 101 -174 168 -225 23 -18 42 -38 42 -45 0 -7 -24 -30 -52 -51 -92 -67
-139 -108 -154 -135 -11 -23 -26 -30 -91 -44 -182 -40 -352 -122 -468 -223
-70 -62 -80 -105 -31 -137 21 -14 34 -13 139 10 127 27 199 31 257 14 61 -18
131 -78 163 -139 29 -54 29 -57 22 -160 -13 -188 -13 -182 17 -199 25 -14 30
-13 100 22 72 36 151 67 171 67 5 0 -9 -19 -33 -42 -23 -24 -54 -68 -69 -98
-23 -48 -26 -67 -25 -155 0 -87 4 -108 26 -158 34 -73 113 -157 180 -189 68
-33 165 -51 233 -43 l52 7 13 -67 13 -67 -46 -46 c-64 -67 -89 -122 -95 -210
-3 -53 0 -90 13 -132 l18 -59 -39 -43 c-22 -24 -50 -64 -62 -90 -27 -54 -15
-51 -269 -67 -234 -15 -214 -37 47 -51 403 -23 685 -30 1102 -30 411 0 448 -1
457 -17 12 -22 105 -32 321 -32 179 0 281 9 353 34 48 16 114 20 557 30 353 7
526 14 655 26 105 9 124 13 113 24 -11 12 -265 26 -553 32 -170 3 -311 7 -313
8 -2 2 30 13 70 25 248 75 485 284 581 513 42 100 59 196 56 317 -1 73 3 117
13 145 26 70 53 225 41 244 -17 28 -61 24 -136 -12 l-72 -33 -23 28 c-16 19
-33 28 -52 28 -26 0 -33 -7 -66 -77 -21 -47 -50 -89 -70 -106 -19 -16 -34 -34
-34 -41 0 -7 16 -35 35 -62 l35 -49 -24 -23 -23 -24 -67 51 c-97 74 -117 69
-174 -46 l-39 -76 -11 44 c-6 25 -22 60 -34 79 -37 55 -74 52 -172 -9 -44 -28
-81 -49 -84 -47 -2 2 6 34 17 70 44 142 38 205 -21 225 -28 10 -97 3 -141 -15
-15 -6 -18 -3 -15 17 4 31 60 42 179 36 75 -4 98 -10 178 -47 112 -51 128 -49
174 23 93 144 229 211 422 210 110 -1 163 -17 302 -87 88 -44 138 -48 155 -12
8 19 6 45 -12 121 -63 267 73 392 390 356 78 -9 98 -8 116 4 57 37 36 91 -61
159 -178 123 -434 213 -705 247 -162 20 -411 -2 -576 -50 -27 -8 -34 -5 -69
30 -21 22 -62 55 -92 76 -29 20 -53 40 -53 45 0 4 16 8 35 8 41 0 145 38 212
77 67 38 211 187 256 263 81 139 73 178 -40 203 -37 9 -98 17 -135 19 -38 2
-68 6 -68 9 0 3 24 16 52 30 140 65 293 191 388 319 93 126 168 310 191 468
16 116 7 315 -20 416 -54 202 -163 378 -296 476 -141 104 -248 135 -293 87
-25 -27 -27 -53 -11 -179 15 -114 1 -204 -45 -296 -64 -126 -146 -199 -282
-252 -112 -43 -116 -42 -98 23 8 28 17 89 21 133 6 78 5 82 -17 94 -49 26
-227 -18 -380 -95 l-85 -43 4 154 c3 159 -15 320 -44 391 -18 43 -46 49 -146
28 -176 -35 -349 -108 -503 -213 -90 -61 -213 -177 -261 -247 -21 -30 -42 -52
-45 -48 -4 5 -17 37 -30 73 -28 80 -44 100 -83 100 -40 0 -89 -54 -152 -166
-45 -79 -49 -84 -58 -63 -5 13 -7 60 -5 104 3 75 8 89 71 221 36 77 72 165 78
194 10 47 9 55 -8 79 -16 21 -29 26 -69 28 -27 1 -74 -6 -105 -16z m2421 -141
c32 -26 110 -118 110 -131 0 -7 -130 3 -130 9 -5 68 -11 106 -20 121 -21 41
-10 41 40 1z m-2508 -73 c-27 -36 -52 -71 -54 -77 -3 -9 -13 -9 -46 1 -23 6
-42 15 -42 18 0 17 178 136 188 126 2 -2 -19 -33 -46 -68z m1132 17 c-18 -15
-18 -15 9 -11 34 5 33 4 -63 -61 -41 -28 -97 -71 -125 -96 l-50 -44 28 -13
c21 -9 27 -19 27 -43 0 -34 -29 -88 -63 -118 -12 -11 -16 -17 -9 -13 6 3 12 2
12 -3 0 -6 -7 -13 -16 -16 -21 -8 -144 -8 -144 1 0 3 12 27 26 52 l27 46 -40
-38 c-34 -32 -41 -36 -47 -22 -3 10 -12 15 -21 11 -8 -3 -17 0 -21 6 -5 7 -2
8 6 3 9 -5 11 -2 6 11 -21 69 -18 81 32 125 92 82 230 163 362 213 77 29 91
32 64 10z m1531 -150 c27 -35 73 -168 85 -247 18 -112 8 -236 -26 -325 l-28
-71 -34 60 c-34 60 -58 81 -71 62 -3 -5 -14 -12 -23 -16 -16 -5 -14 -14 17
-79 53 -113 53 -116 4 -172 -45 -51 -101 -91 -142 -101 -20 -5 -31 2 -66 44
-26 31 -47 48 -54 44 -7 -4 -15 -8 -19 -9 -5 -1 -11 -2 -14 -3 -3 0 4 -16 15
-35 12 -18 21 -41 21 -49 0 -22 -109 -111 -179 -146 -110 -56 -199 -71 -288
-48 -13 3 -23 1 -23 -4 0 -6 -5 -7 -10 -4 -6 4 -8 11 -5 16 4 5 2 9 -3 9 -6 0
-25 23 -43 51 -43 67 -57 81 -79 74 -10 -3 -21 -1 -25 4 -3 6 0 8 8 5 58 -22
-18 114 -108 193 l-53 47 42 33 c71 57 166 100 326 148 188 57 290 108 359
178 58 59 113 133 131 177 7 17 17 30 22 30 5 0 6 4 3 10 -3 5 0 7 8 4 18 -6
28 18 16 37 -5 8 -9 21 -9 29 0 13 1 13 10 0 7 -11 10 -11 10 -2 0 7 4 11 8 8
5 -3 16 8 26 25 12 20 25 29 42 29 16 0 23 4 18 11 -5 8 11 10 55 7 45 -3 65
-9 76 -24z m-2760 -5 c3 -3 -2 -38 -12 -78 -22 -93 -10 -148 58 -258 19 -31
20 -36 6 -30 -10 4 -54 10 -99 13 -101 9 -99 -6 4 -31 91 -22 115 -36 156 -91
31 -42 38 -75 26 -121 -6 -21 -11 -22 -118 -21 -125 1 -207 -9 -185 -23 8 -5
22 -6 32 -3 9 3 17 2 17 -3 0 -4 20 -7 44 -5 23 2 54 2 67 0 21 -3 19 -6 -21
-27 -76 -40 -158 -100 -229 -167 -66 -62 -68 -63 -80 -41 -6 12 -16 37 -21 55
-8 30 -6 37 18 59 14 13 48 38 74 55 27 17 48 33 48 35 0 2 -4 1 -10 -2 -14
-9 -13 8 2 23 30 30 -48 1 -125 -47 -43 -27 -47 -20 -47 89 0 68 3 82 24 107
30 36 111 94 120 86 3 -3 6 -1 6 6 0 7 5 9 12 5 6 -4 8 -3 4 4 -3 6 4 18 16
27 23 17 23 17 -12 11 -19 -3 -62 -19 -95 -35 -33 -17 -61 -29 -62 -27 -7 7
54 184 69 200 10 11 18 24 18 29 0 5 16 31 35 57 19 26 32 50 30 54 -3 3 -2 4
1 2 3 -3 16 4 28 16 11 11 38 33 58 48 21 15 35 30 32 33 -4 3 19 5 49 4 31
-2 58 -5 62 -8z m421 -201 c-19 -72 -28 -142 -22 -173 7 -35 8 -36 25 -21 24
22 36 20 49 -9 19 -41 15 -75 -7 -75 -10 0 -29 -9 -42 -21 -13 -11 -18 -17
-10 -13 12 6 13 -4 9 -53 -6 -60 -35 -121 -72 -152 -19 -16 -32 -4 -65 64 -30
63 -35 122 -16 195 18 71 81 209 115 253 26 33 45 35 36 5z m1344 -73 c0 -2
-13 -11 -30 -20 -21 -11 -30 -23 -30 -40 0 -24 -41 -65 -66 -65 -7 0 -19 9
-27 20 -13 19 -15 19 -73 -21 l-59 -40 45 41 c55 50 240 147 240 125z m-2180
-188 c0 -2 -9 -12 -20 -22 -24 -21 -27 -14 -4 9 15 15 24 20 24 13z m1708
-244 c-19 -21 -33 -44 -31 -51 3 -7 -3 -22 -13 -33 -17 -18 -16 -19 13 -19 18
0 33 6 37 15 3 8 13 15 23 14 16 0 16 -1 -2 -9 -16 -7 -11 -9 21 -9 23 -1 61
-4 85 -7 43 -6 45 -5 63 30 19 36 19 37 -1 64 l-20 27 26 -1 c35 -1 114 -25
123 -38 4 -6 2 -14 -5 -18 -7 -4 -12 -18 -12 -32 -1 -14 3 -22 7 -20 4 3 8 0
8 -5 0 -6 -7 -11 -16 -11 -13 0 -14 -3 -5 -13 6 -8 9 -16 6 -19 -7 -7 124 -48
152 -48 11 0 26 -7 33 -16 8 -8 9 -14 4 -13 -5 1 -17 -1 -26 -5 -14 -7 -12
-13 18 -53 67 -88 83 -142 64 -214 -19 -68 -82 -157 -115 -162 -11 -1 -25 -6
-31 -10 -14 -8 -38 18 -29 32 4 7 -1 8 -11 4 -13 -5 -15 -3 -9 7 5 8 4 11 -2
7 -5 -4 -25 5 -44 19 -49 36 -150 64 -228 64 -131 0 -244 -50 -343 -152 -102
-105 -159 -243 -157 -383 2 -97 17 -124 19 -35 2 41 5 64 7 50 17 -98 67 -197
125 -246 96 -80 239 -106 350 -64 150 56 244 213 236 395 -3 66 -1 72 14 64 9
-5 29 -24 43 -43 62 -82 8 -306 -102 -412 -24 -24 -42 -44 -38 -44 18 0 100
57 140 98 30 30 45 40 45 29 0 -11 8 -17 24 -17 24 0 59 -40 59 -67 0 -7 3
-13 7 -13 12 0 40 -59 40 -85 0 -36 -26 -78 -60 -99 -30 -17 -96 -21 -119 -7
-9 6 -36 -6 -84 -35 -39 -24 -100 -55 -136 -68 -81 -31 -215 -42 -272 -22
l-38 13 5 -46 c3 -25 7 -50 9 -56 6 -24 -16 -139 -35 -176 -31 -59 -89 -119
-136 -139 -87 -38 -285 -76 -270 -52 3 6 -3 14 -15 17 -14 5 -18 12 -14 23 4
10 8 23 8 30 0 6 5 12 10 12 5 0 6 11 3 24 -4 16 -1 26 9 30 16 6 21 36 5 36
-18 0 0 25 35 47 19 13 45 42 57 65 20 37 23 58 23 153 0 99 2 111 22 131 12
12 33 45 48 74 26 51 29 96 14 188 -1 8 -30 -16 -64 -52 -33 -36 -66 -66 -72
-66 -6 0 -13 -6 -16 -12 -7 -19 -144 -85 -212 -103 -75 -18 -208 -22 -297 -8
-58 9 -152 44 -168 62 -3 3 -14 11 -25 18 -11 6 -19 16 -17 22 1 6 -13 11 -32
11 -44 0 -112 58 -126 108 -17 63 20 169 70 200 25 15 115 29 107 16 -3 -5 1
-20 9 -34 7 -14 13 -19 14 -13 0 17 74 93 90 93 7 0 10 7 6 16 -5 14 -4 15 8
5 10 -9 24 -9 48 -2 24 7 27 9 11 10 -12 1 -32 11 -45 24 -13 12 -43 39 -68
59 -25 21 -61 62 -80 92 -21 34 -40 53 -49 51 -9 -4 -11 0 -7 11 8 21 -2 56
-14 49 -4 -3 -6 5 -2 17 4 16 2 19 -9 13 -11 -6 -12 -5 -2 5 10 11 7 18 -15
38 -15 13 -21 21 -14 17 11 -6 11 -3 0 16 -16 27 -37 56 -60 80 -10 10 -21 31
-24 46 -11 43 -44 93 -63 93 -50 0 -127 -89 -149 -172 l-10 -36 42 44 c24 24
48 44 54 44 7 0 -5 -16 -26 -34 -77 -70 -120 -187 -133 -366 -6 -88 -7 -77 -4
65 8 364 98 576 312 736 60 45 63 46 63 20 0 -22 42 -76 74 -93 11 -7 43 -15
70 -18 l49 -5 23 -85 c52 -197 139 -377 197 -410 24 -13 28 -13 53 5 14 11 53
63 86 115 146 233 307 417 446 510 49 33 66 40 75 31 9 -9 8 -11 -4 -6 -10 4
-20 2 -23 -4 -4 -6 9 -13 33 -17 23 -4 38 -10 36 -15 -3 -4 3 -13 14 -18 25
-14 34 -14 26 -1 -3 6 -4 10 -1 10 2 0 13 3 23 6 15 5 16 4 3 -6 -13 -10 -12
-11 3 -6 10 3 23 6 29 6 6 0 5 7 -3 17 -8 9 -9 14 -2 10 14 -9 33 43 33 89 0
31 3 34 29 34 17 0 33 -5 36 -10 4 -6 16 -5 33 5 45 24 48 17 10 -22z m-188
-23 c-8 -5 -19 -10 -25 -10 -5 0 -3 5 5 10 8 5 20 10 25 10 6 0 3 -5 -5 -10z
m-56 -28 c3 -5 -1 -9 -9 -9 -8 0 -12 4 -9 9 3 4 7 8 9 8 2 0 6 -4 9 -8z m1851
-54 c-4 -13 -15 -41 -25 -63 l-18 -40 -1 32 c-1 38 8 65 20 57 8 -5 13 9 10
29 0 4 4 7 10 7 6 0 8 -9 4 -22z m-125 -178 c0 -55 -3 -63 -42 -111 -24 -29
-62 -68 -86 -87 l-43 -36 7 65 c7 64 7 64 80 134 41 39 74 76 74 83 0 7 2 12
5 12 3 0 5 -27 5 -60z m-260 -224 c0 -61 -15 -83 -80 -116 -89 -45 -271 -118
-303 -122 -26 -3 -30 1 -47 52 -11 30 -19 56 -20 57 0 1 24 6 53 13 84 18 247
76 317 114 36 20 68 36 73 36 4 0 7 -15 7 -34z m-2717 -33 c-7 -2 -21 -2 -30
0 -10 3 -4 5 12 5 17 0 24 -2 18 -5z m1425 -196 c4 -20 -25 -34 -40 -19 -15
15 -1 44 19 40 10 -2 19 -11 21 -21z m-1290 -20 c4 -20 -25 -34 -39 -20 -14
14 1 45 20 41 9 -2 17 -11 19 -21z m1214 -8 c26 -14 49 -69 41 -100 -15 -62
-85 -94 -141 -65 -53 27 -69 88 -36 134 27 39 93 54 136 31z m-1254 -32 c51
-47 11 -137 -63 -137 -41 0 -85 36 -85 69 0 36 24 74 55 87 35 15 61 10 93
-19z m1549 17 c4 -11 -1 -22 -12 -31 -16 -11 -21 -11 -33 1 -8 8 -12 22 -9 30
8 21 46 21 54 0z m981 -65 c16 -3 16 -19 -1 -19 -8 0 -13 -9 -13 -21 1 -15 -9
-24 -39 -35 -86 -33 -184 -55 -265 -61 -82 -5 -86 -5 -118 22 -17 15 -32 30
-32 33 0 13 69 51 127 72 50 17 77 19 193 16 74 -2 141 -5 148 -7z m-2733 -38
c18 -7 20 -18 21 -107 2 -112 23 -184 73 -258 21 -31 31 -57 31 -83 0 -114 43
-235 104 -297 19 -18 38 -52 46 -80 13 -49 63 -125 104 -159 29 -24 112 -67
131 -67 8 0 15 -7 15 -15 0 -26 46 -108 77 -137 15 -15 44 -34 63 -42 52 -23
10 -20 -79 5 -219 61 -390 184 -460 333 -50 105 -60 192 -35 316 4 19 4 32 -1
28 -4 -4 -20 7 -36 23 -15 16 -33 29 -39 29 -14 0 -13 13 4 35 12 17 11 25 -9
65 -45 88 -66 250 -49 374 7 49 8 49 39 37z m1819 -157 l38 -7 -5 -49 c-21
-178 -236 -295 -402 -220 -81 37 -148 113 -165 188 -11 47 2 43 27 -10 52
-106 138 -161 253 -160 78 1 124 19 183 73 35 32 97 131 97 155 0 2 -15 7 -32
11 -55 11 -68 16 -68 26 0 6 8 8 18 5 9 -3 34 -8 56 -12z m-534 -19 c0 -14 -2
-25 -4 -25 -2 0 -6 11 -8 25 -3 14 -1 25 3 25 5 0 9 -11 9 -25z m-1175 -86
c10 -21 22 -39 27 -39 11 0 10 -38 -2 -45 -17 -11 -60 95 -59 145 1 44 1 44 9
11 4 -18 16 -51 25 -72z m-185 -109 c24 0 60 -37 60 -62 0 -11 5 -15 14 -12
21 8 26 -9 10 -31 -10 -14 -14 -15 -15 -4 0 8 -4 4 -9 -8 -12 -30 -55 -56 -79
-48 -22 7 -43 57 -35 83 5 14 4 15 -5 2 -6 -8 -11 -35 -11 -60 0 -36 -5 -48
-27 -66 l-27 -21 30 -16 c37 -20 12 -22 -51 -3 -53 16 -105 60 -105 88 0 10 4
18 8 18 5 0 55 42 113 93 94 85 104 92 107 70 2 -15 10 -23 22 -23z m-96 -412
c7 -13 25 -26 41 -29 29 -6 29 -7 -7 -8 -39 -1 -58 17 -58 55 0 20 8 14 24
-18z m1220 15 c2 7 5 1 5 -13 1 -43 -19 -99 -40 -110 -17 -9 -25 -6 -54 23
-19 19 -35 42 -35 51 0 15 44 42 63 38 4 -1 7 2 7 8 0 6 9 6 24 0 17 -6 26 -5
30 3z m-596 -68 c6 -5 -23 -45 -32 -45 -12 0 -56 40 -56 51 0 6 80 1 88 -6z
m471 -129 c10 -12 14 -37 12 -81 -1 -23 -3 -27 -11 -15 -8 12 -10 10 -10 -8 0
-13 -4 -20 -10 -17 -5 3 -10 -1 -10 -10 0 -23 -65 -47 -140 -52 -88 -6 -132
13 -170 74 -32 51 -37 72 -18 91 15 15 85 16 128 1 27 -10 37 -9 61 5 53 32
146 38 168 12z m827 -199 c48 -42 20 -91 -83 -144 -53 -27 -54 -28 -69 -9 -8
11 -14 40 -15 65 0 35 -2 41 -9 26 -16 -37 -11 -111 8 -135 25 -31 48 -24 152
47 59 40 86 65 88 81 4 27 23 24 38 -6 6 -12 13 -20 16 -17 3 3 3 -5 1 -19 -3
-13 0 -34 7 -46 7 -13 8 -20 2 -16 -6 3 -13 2 -17 -4 -4 -6 -12 -7 -18 -3 -7
3 -4 -3 6 -14 10 -11 20 -36 24 -56 4 -30 2 -38 -20 -51 -57 -38 -135 -25
-148 24 -8 31 -17 12 -21 -45 -3 -39 -4 -40 -53 -52 -48 -12 -52 -11 -95 15
-40 25 -46 34 -56 81 -12 50 -34 80 -62 81 -8 0 -12 -3 -10 -7 43 -83 43 -121
2 -147 -77 -51 -105 13 -64 146 36 116 102 183 210 212 87 23 154 21 186 -7z
m-748 -89 c-3 -9 -30 -13 -84 -14 l-79 0 80 3 c55 3 75 7 65 13 -13 8 -12 10
3 10 11 0 17 -6 15 -12z m-245 -15 c-7 -2 -21 -2 -30 0 -10 3 -4 5 12 5 17 0
24 -2 18 -5z m-665 -25 c7 -7 12 -29 12 -49 0 -29 -7 -43 -31 -63 -30 -26 -63
-33 -85 -18 -16 10 -34 48 -34 70 0 45 106 92 138 60z m126 -48 c14 -14 15
-100 2 -100 -6 0 5 -8 24 -18 26 -12 36 -25 38 -45 7 -59 -65 -90 -108 -47
-23 23 -24 33 -9 63 12 21 11 22 -8 4 -12 -10 -23 -30 -26 -45 -10 -49 -44
-82 -84 -82 -51 0 -75 30 -71 90 3 45 3 45 44 50 79 11 131 70 121 136 l-6 34
37 -16 c20 -8 41 -19 46 -24z m346 -45 c115 -58 301 -67 520 -23 73 14 105 17
108 9 2 -6 17 -11 33 -11 28 0 29 -1 29 -50 0 -59 30 -125 60 -135 11 -4 18
-10 15 -15 -3 -5 0 -10 5 -12 6 -2 12 -22 13 -45 0 -23 4 -40 8 -38 5 4 -24
-86 -46 -139 -5 -10 -23 -34 -41 -53 l-33 -34 34 -75 c34 -75 58 -113 102
-168 21 -25 22 -31 10 -45 -20 -22 -65 -110 -73 -144 -3 -15 -12 -27 -18 -27
-7 0 -44 -29 -81 -66 -46 -44 -94 -78 -147 -103 l-79 -39 65 -17 c80 -22 176
-17 232 11 l40 20 18 -37 c34 -69 26 -74 -104 -72 -63 1 -148 9 -189 19 -98
21 -203 63 -194 77 4 6 0 8 -10 4 -10 -3 -17 -2 -17 4 0 6 -4 8 -9 5 -5 -3
-29 5 -53 19 -50 29 -50 29 22 10 109 -29 257 -13 337 38 84 53 147 143 192
275 22 66 29 133 10 99 -5 -9 -7 -22 -3 -29 4 -7 3 -8 -4 -4 -7 4 -12 2 -12
-5 0 -67 -256 -291 -301 -264 -8 6 -10 4 -4 -5 6 -10 4 -12 -11 -6 -10 5 -26
9 -34 10 -8 1 -24 6 -35 12 -11 7 -47 19 -80 29 -61 17 -195 80 -243 114 -47
33 -67 34 -80 6 -9 -20 -9 -25 0 -19 8 5 9 2 5 -10 -4 -10 4 -33 20 -59 24
-39 24 -40 3 -22 -42 38 -113 140 -147 212 -48 104 -74 225 -71 326 l3 82 17
-56 c19 -61 54 -113 69 -103 6 3 5 12 -3 22 -11 13 -11 14 2 7 13 -7 13 -6 -1
11 -16 20 -62 115 -73 150 -11 37 21 165 63 249 43 85 102 166 109 146 2 -6
26 -23 52 -36z m-628 -44 c39 -49 7 -126 -50 -119 -50 6 -60 80 -17 128 21 23
43 20 67 -9z m3215 -573 c-3 -7 -5 -2 -5 12 0 14 2 19 5 13 2 -7 2 -19 0 -25z
m-1422 -128 c51 -11 92 -59 101 -116 5 -34 1 -52 -21 -96 -34 -68 -65 -95
-134 -115 -44 -13 -64 -13 -103 -4 -64 14 -111 47 -132 90 l-16 36 3 -86 c2
-62 9 -97 24 -126 20 -38 20 -40 3 -51 -24 -14 -37 1 -56 64 -19 65 -18 120 6
195 50 159 180 243 325 209z m1350 -69 c-21 -43 -29 -39 -8 4 9 19 18 33 21
31 2 -2 -4 -18 -13 -35z m-2831 -38 c-26 -74 -12 -212 27 -265 11 -16 16 -28
11 -28 -14 0 -60 53 -71 83 -24 63 -8 188 30 234 17 20 18 16 3 -24z m2797
-20 c-5 -10 -24 -34 -41 -53 -32 -36 -24 -19 19 38 27 35 37 42 22 15z m-135
-148 c-9 -13 -40 -42 -69 -64 -54 -41 -195 -117 -202 -109 -9 8 38 88 51 88
20 0 141 63 189 98 43 31 56 26 31 -13z m-726 -126 c30 -11 57 -22 58 -24 5
-5 -79 -95 -88 -95 -4 0 -13 26 -20 58 -7 31 -15 63 -17 70 -7 17 3 15 67 -9z
m423 2 c-10 -40 -64 -90 -117 -110 -71 -26 -194 -51 -253 -51 l-48 1 31 27
c16 16 42 44 57 64 27 35 28 35 120 41 69 4 188 30 214 46 0 1 -1 -7 -4 -18z
m-2386 -85 c-20 -24 -33 -46 -30 -50 4 -3 1 -6 -5 -6 -7 0 -12 -10 -12 -22 0
-13 -4 -29 -9 -36 -6 -11 -10 -10 -15 3 -7 20 9 83 28 107 11 15 63 48 75 48
2 0 -13 -20 -32 -44z m117 -37 c-19 -29 -34 -64 -34 -80 0 -16 -4 -29 -10 -29
-15 0 -12 77 5 110 15 29 40 49 62 50 6 0 -4 -23 -23 -51z m1353 31 c39 -23
62 -85 44 -118 -7 -13 -17 -19 -26 -16 -11 4 -13 2 -9 -9 6 -16 -19 -34 -53
-40 -10 -1 -24 -6 -31 -11 -24 -14 -41 2 -47 47 -10 65 9 124 48 147 39 24 35
24 74 0z m199 -5 c12 -8 27 -28 34 -45 11 -26 10 -33 -4 -49 -10 -11 -31 -25
-47 -31 -16 -7 -29 -18 -29 -26 0 -7 -5 -16 -12 -20 -8 -5 -9 -1 -4 12 5 13
-1 11 -17 -8 -14 -16 -27 -28 -30 -28 -14 0 -27 71 -21 110 13 81 77 123 130
85z m-357 -21 c28 -36 27 -85 -2 -112 -25 -23 -102 -54 -111 -45 -10 11 -6
103 5 126 15 29 50 56 71 57 9 0 26 -12 37 -26z"/>
<path d="M4143 4245 c0 -8 4 -12 9 -9 5 3 6 10 3 15 -9 13 -12 11 -12 -6z"/>
<path d="M1546 4338 c3 -5 10 -6 15 -3 13 9 11 12 -6 12 -8 0 -12 -4 -9 -9z"/>
<path d="M2291 3166 c2 -2 22 -6 44 -9 28 -5 34 -4 20 3 -19 8 -73 14 -64 6z"/>
<path d="M2390 3141 c8 -5 29 -11 45 -15 l30 -6 -25 15 c-14 8 -34 14 -45 14
-16 0 -17 -1 -5 -8z"/>
<path d="M2640 3080 c0 -5 5 -10 11 -10 5 0 7 5 4 10 -3 6 -8 10 -11 10 -2 0
-4 -4 -4 -10z"/>
<path d="M1692 3018 c-19 -19 -15 -82 9 -112 15 -19 30 -26 56 -26 l36 0 -7
48 c-10 76 -60 124 -94 90z"/>
<path d="M2199 2986 c-49 -34 -67 -77 -45 -111 45 -69 196 -23 196 60 0 69
-83 97 -151 51z"/>
<path d="M3035 2250 c-10 -11 -16 -22 -14 -24 2 -2 12 7 22 20 22 29 17 32 -8
4z"/>
<path d="M1856 1472 c-8 -13 38 -75 76 -103 49 -38 56 -40 64 -28 4 7 3 10 -2
6 -10 -6 -45 16 -46 30 -2 34 -23 69 -40 65 -7 -2 -10 0 -6 4 10 9 -10 34 -28
34 -7 0 -15 -4 -18 -8z m31 -19 c0 -7 -4 -13 -8 -13 -4 0 -9 6 -12 13 -3 8 0
14 7 14 7 0 13 -6 13 -14z"/>
<path d="M2300 816 c0 -2 7 -6 15 -10 8 -3 15 -1 15 4 0 6 -7 10 -15 10 -8 0
-15 -2 -15 -4z"/>
<path d="M2910 650 c-9 -6 -10 -10 -3 -10 6 0 15 5 18 10 8 12 4 12 -15 0z"/>
</g>
</svg>
